<svg width="33" height="24" viewBox="0 0 33 24" fill="none" xmlns="http://www.w3.org/2000/svg">
<path d="M15 24H8.25C5.975 24 4.031 23.2125 2.418 21.6375C0.805001 20.0625 -0.000999071 18.1375 9.29368e-07 15.8625C9.29368e-07 13.9125 0.587501 12.175 1.7625 10.65C2.9375 9.125 4.475 8.15 6.375 7.725C7 5.425 8.25 3.5625 10.125 2.1375C12 0.7125 14.125 0 16.5 0C19.425 0 21.9065 1.019 23.9445 3.057C25.9825 5.095 27.001 7.576 27 10.5C28.725 10.7 30.1565 11.444 31.2945 12.732C32.4325 14.02 33.001 15.526 33 17.25C33 19.125 32.3435 20.719 31.0305 22.032C29.7175 23.345 28.124 24.001 26.25 24H18V13.275L20.4 15.6L22.5 13.5L16.5 7.5L10.5 13.5L12.6 15.6L15 13.275V24Z" fill="white"/>
</svg>
