<svg width="19" height="22" viewBox="0 0 19 22" fill="none" xmlns="http://www.w3.org/2000/svg">
<path d="M19 17.8095V18.8571H0V17.8095L2.11111 15.7143V9.42857C2.11111 6.18095 4.25389 3.32095 7.38889 2.39905V2.09524C7.38889 1.53955 7.61131 1.00661 8.00722 0.613681C8.40313 0.220748 8.9401 0 9.5 0C10.0599 0 10.5969 0.220748 10.9928 0.613681C11.3887 1.00661 11.6111 1.53955 11.6111 2.09524V2.39905C14.7461 3.32095 16.8889 6.18095 16.8889 9.42857V15.7143L19 17.8095ZM11.6111 19.9048C11.6111 20.4605 11.3887 20.9934 10.9928 21.3863C10.5969 21.7793 10.0599 22 9.5 22C8.9401 22 8.40313 21.7793 8.00722 21.3863C7.61131 20.9934 7.38889 20.4605 7.38889 19.9048" fill="white"/>
</svg>
