<svg width="41" height="37" viewBox="0 0 41 37" fill="none" xmlns="http://www.w3.org/2000/svg">
<path opacity="0.1" d="M20.5 29.8056C23.0625 29.8056 25.241 28.9059 27.0354 27.1066C28.8298 25.3073 29.7264 23.1236 29.725 20.5556C29.725 17.9861 28.8278 15.8017 27.0333 14.0024C25.2389 12.2031 23.0611 11.3042 20.5 11.3056C17.9375 11.3056 15.759 12.2052 13.9646 14.0045C12.1702 15.8038 11.2736 17.9875 11.275 20.5556C11.275 23.125 12.1722 25.3094 13.9667 27.1087C15.7611 28.908 17.9389 29.8069 20.5 29.8056ZM20.5 25.6944C19.065 25.6944 17.8521 25.1977 16.8613 24.2042C15.8704 23.2106 15.375 21.9944 15.375 20.5556C15.375 19.1167 15.8704 17.9005 16.8613 16.9069C17.8521 15.9134 19.065 15.4167 20.5 15.4167C21.935 15.4167 23.1479 15.9134 24.1388 16.9069C25.1296 17.9005 25.625 19.1167 25.625 20.5556C25.625 21.9944 25.1296 23.2106 24.1388 24.2042C23.1479 25.1977 21.935 25.6944 20.5 25.6944ZM4.1 37C2.9725 37 2.00695 36.5971 1.20335 35.7913C0.399753 34.9856 -0.00136319 34.0181 3.48048e-06 32.8889V8.22222C3.48048e-06 7.09167 0.401803 6.1235 1.2054 5.31772C2.009 4.51194 2.97387 4.10974 4.1 4.11111H10.5575L14.35 0H26.65L30.4425 4.11111H36.9C38.0275 4.11111 38.993 4.514 39.7966 5.31978C40.6003 6.12555 41.0014 7.09304 41 8.22222V32.8889C41 34.0194 40.5982 34.9876 39.7946 35.7934C38.991 36.5992 38.0261 37.0014 36.9 37H4.1ZM36.9 32.8889V8.22222H28.5975L24.8563 4.11111H16.1438L12.4025 8.22222H4.1V32.8889H36.9Z" fill="white"/>
</svg>
