<svg width="27" height="27" viewBox="0 0 27 27" fill="none" xmlns="http://www.w3.org/2000/svg">
<path d="M13.5 0C12.8252 0 12.1503 0.256468 11.597 0.7964L0.799675 11.5951C-0.266558 12.6479 -0.266558 14.3487 0.799675 15.4016L11.597 26.2002C12.6497 27.2666 14.3503 27.2666 15.403 26.2002L26.2003 15.4016C27.2666 14.3487 27.2666 12.6479 26.2003 11.5951L15.403 0.7964C14.8497 0.256468 14.1748 0 13.5 0ZM13.5 6.68166C17.1441 6.83015 18.7232 10.5017 16.5772 13.2418C16.0104 13.9168 15.1061 14.3622 14.6472 14.9426C14.1748 15.5231 14.1748 16.198 14.1748 16.8729H12.1503C12.1503 15.7255 12.1503 14.7672 12.6227 14.0922C13.0681 13.4173 13.9724 13.0124 14.5392 12.5669C16.1993 11.0416 15.7674 8.89539 13.5 8.71991C12.3933 8.71991 11.4755 9.6243 11.4755 10.7582H9.45101C9.45101 8.50394 11.2731 6.68166 13.5 6.68166ZM12.1503 18.2227H14.1748V20.2475H12.1503V18.2227Z" fill="white"/>
</svg>
