<svg width="28" height="28" viewBox="0 0 28 28" fill="none" xmlns="http://www.w3.org/2000/svg">
<path d="M27.4051 21.6377L21.0016 15.2345C19.7384 13.9713 17.8517 13.7252 16.3315 14.4744L10.5021 8.64525V5.24949L3.50254 0L0.00273418 3.49966L5.25244 10.499H8.64835L14.4777 16.3281C13.734 17.8483 13.9746 19.7348 15.2378 20.9979L21.6414 27.4012C22.4398 28.1996 23.7303 28.1996 24.5232 27.4012L27.4051 24.5195C28.198 23.7211 28.198 22.4306 27.4051 21.6377ZM18.1416 12.3035C19.6891 12.3035 21.1437 12.905 22.2374 13.9986L23.2983 15.0595C24.1623 14.6822 24.9826 14.1572 25.6935 13.4463C27.7223 11.4176 28.4113 8.56323 27.766 5.97129C27.6457 5.47915 27.0278 5.30964 26.6669 5.67054L22.5984 9.73889L18.8853 9.12099L18.2673 5.40807L22.3359 1.33971C22.6968 0.978811 22.5218 0.360902 22.0242 0.235133C19.4321 -0.404648 16.5776 0.284347 14.5543 2.30759C12.9958 3.86603 12.263 5.92208 12.3013 7.97266L16.7909 12.4621C17.2338 12.3582 17.6932 12.3035 18.1416 12.3035ZM12.4599 16.7874L9.35925 13.6869L1.02533 22.026C-0.341778 23.393 -0.341778 25.6077 1.02533 26.9747C2.39245 28.3418 4.60717 28.3418 5.97428 26.9747L12.7333 20.216C12.3177 19.1278 12.1919 17.9412 12.4599 16.7874ZM3.50254 25.81C2.7807 25.81 2.19011 25.2194 2.19011 24.4976C2.19011 23.7703 2.77524 23.1852 3.50254 23.1852C4.22984 23.1852 4.81497 23.7703 4.81497 24.4976C4.81497 25.2194 4.22984 25.81 3.50254 25.81Z" fill="white"/>
</svg>
