<svg width="34" height="25" viewBox="0 0 34 25" fill="none" xmlns="http://www.w3.org/2000/svg">
<path d="M8.22584 13.3337C8.22768 13.4801 8.20057 13.6254 8.1461 13.761C8.09164 13.8967 8.01092 14.0199 7.9087 14.1235C7.80649 14.227 7.68485 14.3088 7.55095 14.364C7.41705 14.4191 7.27361 14.4466 7.12907 14.4447H1.09682C0.893063 14.4431 0.693589 14.3853 0.519724 14.2777C0.345858 14.17 0.20414 14.0166 0.109721 13.8336C0.0219209 13.6474 -0.0142539 13.4404 0.00506443 13.2349C0.0243828 13.0294 0.0984678 12.8331 0.219398 12.667C1.19002 11.3471 2.48521 10.308 3.97584 9.6532C3.33532 9.05922 2.84319 8.31964 2.53996 7.49533C2.23673 6.67102 2.13107 5.78554 2.23168 4.91177C2.33228 4.03801 2.63628 3.20094 3.11864 2.46945C3.601 1.73797 4.24795 1.13298 5.00622 0.704293C5.76449 0.275603 6.61242 0.0354633 7.48021 0.00363733C8.34801 -0.0281886 9.21086 0.14921 9.99775 0.521231C10.7846 0.893253 11.4731 1.44926 12.0064 2.1435C12.5397 2.83773 12.9026 3.65034 13.0653 4.51445C13.1059 4.73951 13.0778 4.97174 12.9847 5.18018C12.8916 5.38862 12.738 5.56336 12.5444 5.68109C10.7712 6.74627 9.42262 8.40731 8.7331 10.3754C8.39319 11.3235 8.22146 12.325 8.22584 13.3337ZM33.7806 12.667C32.81 11.3471 31.5148 10.308 30.0242 9.6532C30.6647 9.05922 31.1568 8.31964 31.4601 7.49533C31.7633 6.67102 31.869 5.78554 31.7684 4.91177C31.6678 4.03801 31.3638 3.20094 30.8814 2.46945C30.399 1.73797 29.7521 1.13298 28.9938 0.704293C28.2355 0.275603 27.3876 0.0354633 26.5198 0.00363733C25.652 -0.0281886 24.7892 0.14921 24.0023 0.521231C23.2154 0.893253 22.527 1.44926 21.9937 2.1435C21.4604 2.83773 21.0974 3.65034 20.9347 4.51445C20.8941 4.73951 20.9223 4.97174 21.0153 5.18018C21.1084 5.38862 21.262 5.56336 21.4557 5.68109C23.2311 6.74354 24.5805 8.40554 25.2669 10.3754C25.6069 11.3235 25.7786 12.325 25.7742 13.3337C25.7724 13.4801 25.7995 13.6254 25.8539 13.761C25.9084 13.8967 25.9891 14.0199 26.0913 14.1235C26.1936 14.227 26.3152 14.3088 26.4491 14.364C26.583 14.4191 26.7264 14.4466 26.871 14.4447H32.9032C33.1069 14.4447 33.3066 14.3873 33.4798 14.2788C33.6531 14.1703 33.7931 14.0151 33.8842 13.8305C33.9753 13.646 34.0139 13.4394 33.9956 13.2339C33.9773 13.0284 33.9029 12.8321 33.7806 12.667ZM21.0032 18.6252C22.0948 17.7776 22.8968 16.6049 23.2965 15.2719C23.6963 13.9388 23.6737 12.5124 23.232 11.1929C22.7903 9.87354 21.9516 8.72748 20.8338 7.91581C19.716 7.10413 18.3753 6.66763 17 6.66763C15.6247 6.66763 14.284 7.10413 13.1662 7.91581C12.0484 8.72748 11.2098 9.87354 10.768 11.1929C10.3263 12.5124 10.3038 13.9388 10.7035 15.2719C11.1033 16.6049 11.9053 17.7776 12.9968 18.6252C10.8643 19.5843 9.13545 21.2766 8.11616 23.4028C8.03506 23.5718 7.99874 23.7592 8.01076 23.9467C8.02277 24.1342 8.08272 24.3153 8.18471 24.4722C8.27963 24.6332 8.41418 24.7665 8.57519 24.859C8.7362 24.9515 8.91815 25.0001 9.10326 25H24.8968C25.0819 25.0001 25.2638 24.9515 25.4249 24.859C25.5859 24.7665 25.7204 24.6332 25.8153 24.4722C25.9173 24.3153 25.9773 24.1342 25.9893 23.9467C26.0013 23.7592 25.965 23.5718 25.8839 23.4028C24.8646 21.2766 23.1357 19.5843 21.0032 18.6252Z" fill="white"/>
</svg>
