<svg width="25" height="25" viewBox="0 0 25 25" fill="none" xmlns="http://www.w3.org/2000/svg">
<g clip-path="url(#clip0_140_61)">
<path d="M12.5 0C5.60714 0 0 5.60777 0 12.5C0 19.3923 5.60714 25 12.5 25C19.3929 25 25.0001 19.3922 25.0001 12.5C25.0001 5.60771 19.3929 0 12.5 0ZM24.1835 12.9032C24.1416 14.1669 23.8941 15.4152 23.4505 16.5992L21.9678 15.9851L21.6588 16.7306L23.139 17.344C22.6134 18.4931 21.9055 19.5498 21.0427 20.4731L19.9126 19.3434L19.343 19.9132L20.4727 21.0434C19.5495 21.906 18.4928 22.6137 17.3436 23.139L16.7306 21.6588L15.9854 21.9677L16.5995 23.4499C15.4157 23.894 14.1672 24.1417 12.9035 24.1832V22.5806H12.0971V24.1835C10.8335 24.1416 9.58511 23.8941 8.40114 23.4505L9.01522 21.9683L8.27001 21.6593L7.65712 23.1398C6.50801 22.6141 5.45134 21.9063 4.52794 21.0437L5.65768 19.9139L5.08767 19.3437L3.95725 20.4731C3.09449 19.5496 2.38661 18.4927 1.86098 17.3434L3.34118 16.73L3.03224 15.9848L1.54948 16.5992C1.10594 15.4152 0.858362 14.1669 0.816483 12.9032H2.41929V12.0968H0.816483C0.858362 10.8332 1.10594 9.58483 1.54948 8.40086L3.03224 9.01494L3.34118 8.26973L1.86098 7.65639C2.3867 6.50709 3.09457 5.45024 3.95725 4.52664L5.08716 5.65638L5.65717 5.0862L4.52743 3.95645C5.45073 3.09372 6.50742 2.38591 7.65661 1.86041L8.2695 3.34084L9.01471 3.0319L8.40063 1.54965C9.5846 1.10611 10.833 0.858533 12.0966 0.816654V2.41929H12.903V0.816483C14.1666 0.858362 15.415 1.10594 16.599 1.54948L15.9855 3.0323L16.7307 3.34124L17.3436 1.86104C18.4928 2.3864 19.5495 3.09416 20.4728 3.95691L19.343 5.08677L19.913 5.65678L21.0431 4.52703C21.9059 5.45042 22.6138 6.50709 23.1396 7.65621L21.6592 8.26956L21.9681 9.01477L23.4509 8.40069C23.8946 9.58461 24.1422 10.833 24.1839 12.0966H22.5806V12.9031L24.1835 12.9032Z" fill="white"/>
<path d="M12.5 3.91565C7.76611 3.91565 3.91568 7.76659 3.91568 12.5C3.91568 17.2334 7.76611 21.0843 12.5 21.0843C17.2338 21.0843 21.0843 17.2331 21.0843 12.5C21.0843 7.76687 17.2337 3.91565 12.5 3.91565ZM12.5 20.3378C8.17818 20.3378 4.66214 16.822 4.66214 12.4999C4.66214 8.17787 8.1783 4.66211 12.5 4.66211C16.8216 4.66211 20.3379 8.17792 20.3379 12.5C20.3379 16.8221 16.8217 20.3378 12.5 20.3378Z" fill="white"/>
<path d="M12.5 5.87354C11.1894 5.87354 9.90826 6.26217 8.81854 6.9903C7.72882 7.71843 6.87949 8.75334 6.37795 9.96417C5.87641 11.175 5.74518 12.5074 6.00086 13.7928C6.25655 15.0782 6.88766 16.2589 7.81439 17.1856C8.74112 18.1124 9.92185 18.7435 11.2073 18.9992C12.4927 19.2549 13.825 19.1236 15.0359 18.6221C16.2467 18.1205 17.2816 17.2712 18.0097 16.1815C18.7379 15.0918 19.1265 13.8106 19.1265 12.5C19.1246 10.7432 18.4258 9.05881 17.1835 7.81653C15.9412 6.57424 14.2569 5.87547 12.5 5.87354ZM17.422 9.19938L13.7154 10.8274L14.118 6.80133C15.4679 7.18558 16.6383 8.03506 17.422 9.19938ZM12.5 13.5463C12.2931 13.5463 12.0908 13.485 11.9187 13.37C11.7467 13.255 11.6125 13.0916 11.5333 12.9004C11.4542 12.7092 11.4334 12.4989 11.4738 12.2959C11.5142 12.0929 11.6138 11.9065 11.7602 11.7602C11.9065 11.6138 12.0929 11.5142 12.2959 11.4738C12.4989 11.4334 12.7092 11.4542 12.9004 11.5333C13.0916 11.6125 13.255 11.7466 13.37 11.9187C13.485 12.0908 13.5463 12.2931 13.5463 12.5C13.546 12.7774 13.4356 13.0433 13.2395 13.2395C13.0433 13.4356 12.7774 13.546 12.5 13.5463ZM10.7589 12.4742L6.65027 11.5793C6.74624 10.9615 6.94032 10.363 7.22516 9.80648L11.0776 11.4983C10.8747 11.7837 10.7636 12.124 10.7589 12.4741V12.4742ZM14.2411 12.4742C14.2362 12.1241 14.1252 11.7837 13.9227 11.4981L17.7751 9.80619C18.0597 10.3628 18.2539 10.9613 18.3502 11.579L14.2411 12.4742ZM13.4319 6.65157L13.0131 10.842C12.6806 10.7276 12.3194 10.7276 11.9869 10.842L11.5682 6.65157C12.1848 6.54415 12.8153 6.54415 13.4319 6.65157ZM10.882 6.80127L11.2846 10.8274L7.57795 9.19933C8.36168 8.03498 9.53212 7.1855 10.882 6.80127H10.882ZM6.58229 12.2781L10.5336 13.139L7.84333 16.1578C7.01944 15.1166 6.5712 13.8277 6.57122 12.5C6.57104 12.4251 6.57939 12.3525 6.58229 12.2781ZM8.30618 16.6865L11.1097 13.5411C11.3196 13.8207 11.609 14.0306 11.94 14.1434L9.81602 17.78C9.25848 17.497 8.74897 17.128 8.30618 16.6865ZM10.4601 18.0596L12.5 14.5676L14.54 18.0602C13.2245 18.5524 11.7754 18.5523 10.46 18.0599L10.4601 18.0596ZM15.184 17.7796L13.06 14.143C13.3911 14.0302 13.6804 13.8203 13.8904 13.5407L16.6937 16.6862C16.2513 17.128 15.7418 17.497 15.184 17.7796ZM17.1567 16.1578L14.4664 13.139L18.4178 12.2781C18.4206 12.3525 18.4291 12.4251 18.4291 12.5C18.429 13.8278 17.9807 15.1166 17.1567 16.1578Z" fill="white"/>
</g>
<defs>
<clipPath id="clip0_140_61">
<rect width="25" height="25" fill="white"/>
</clipPath>
</defs>
</svg>
