<svg width="27" height="27" viewBox="0 0 27 27" fill="none" xmlns="http://www.w3.org/2000/svg">
<path d="M15.2702 0.734108C14.2914 -0.244703 12.7052 -0.244703 11.7264 0.734108L0.734062 11.7289C-0.244687 12.7077 -0.244687 14.2923 0.734062 15.2695L11.7298 26.2659C12.7086 27.2447 14.2931 27.2447 15.2702 26.2659L26.2659 15.2695C27.2447 14.2906 27.2447 12.706 26.2659 11.7289L15.2702 0.734108ZM13.4983 6.75042C14.4011 6.75042 15.1082 7.5301 15.0171 8.42959L14.4264 14.348C14.4066 14.5805 14.3002 14.7971 14.1284 14.9549C13.9565 15.1128 13.7316 15.2004 13.4983 15.2004C13.265 15.2004 13.0401 15.1128 12.8683 14.9549C12.6964 14.7971 12.59 14.5805 12.5702 14.348L11.9796 8.42959C11.9584 8.21734 11.9818 8.00301 12.0485 7.80039C12.1151 7.59778 12.2235 7.41137 12.3666 7.25318C12.5097 7.09499 12.6843 6.96852 12.8792 6.88193C13.0741 6.79534 13.285 6.75054 13.4983 6.75042ZM13.5017 16.8761C13.9492 16.8761 14.3785 17.0539 14.6949 17.3703C15.0114 17.6868 15.1892 18.1161 15.1892 18.5637C15.1892 19.0112 15.0114 19.4405 14.6949 19.757C14.3785 20.0735 13.9492 20.2513 13.5017 20.2513C13.0541 20.2513 12.6249 20.0735 12.3084 19.757C11.992 19.4405 11.8142 19.0112 11.8142 18.5637C11.8142 18.1161 11.992 17.6868 12.3084 17.3703C12.6249 17.0539 13.0541 16.8761 13.5017 16.8761Z" fill="white"/>
</svg>
